<svg width="200" height="200" viewBox="0 0 200 200" fill="none" xmlns="http://www.w3.org/2000/svg">
<circle cx="100" cy="100" r="100" fill="#242424"/>
<path fill-rule="evenodd" clip-rule="evenodd" d="M93.0899 62.9793C95.8484 65.4707 97.8973 66.5615 99.8036 66.5532C101.702 66.5449 103.661 65.445 106.239 62.9927C105.502 62.5331 104.811 62.1418 104.154 61.8171C103.436 63.8394 101.638 64.8713 99.8079 64.8713C97.9636 64.8713 96.0852 63.8273 95.2184 61.7849C94.5501 62.1112 93.8449 62.5082 93.0899 62.9793ZM96.4658 61.242C97.1104 62.7701 98.4813 63.5113 99.8079 63.5113C101.132 63.5113 102.411 62.7773 102.904 61.2655C101.254 60.6302 99.7853 60.4621 98.2541 60.7368C97.6778 60.8402 97.0858 61.0075 96.4658 61.242ZM102.485 59.6846C101.406 59.081 100.428 58.8188 99.49 58.8419C98.5825 58.8642 97.6607 59.1545 96.6715 59.7317C97.1239 59.5892 97.5703 59.4778 98.014 59.3982C99.5289 59.1264 100.977 59.2309 102.485 59.6846ZM99.4565 57.4823C102.135 57.4163 104.74 59.1381 107.823 62.4161L108.276 62.8977L107.807 63.364C104.899 66.2563 102.44 67.9017 99.8096 67.9132C97.1848 67.9246 94.624 66.3077 91.5157 63.3767L91.0237 62.9127L91.485 62.4181C94.3155 59.3839 96.789 57.548 99.4565 57.4823Z" fill="white"/>
<path fill-rule="evenodd" clip-rule="evenodd" d="M94.9695 75.8406H104.295L104.365 75.8558C105.537 76.1078 106.478 76.4279 107.193 77.0567C107.922 77.6973 108.33 78.5795 108.622 79.7568L108.642 79.8375V99.2739L107.716 98.9145C106.499 98.4419 105.488 97.9925 104.56 97.2337C103.629 96.4731 102.823 95.4382 101.93 93.8545L101.842 93.699V82.6406H97.4026L97.0775 93.6912L97.0099 93.8259C96.2899 95.2585 95.6233 96.3251 94.7645 97.1402C93.8941 97.9664 92.8714 98.4926 91.5094 98.9282L90.6223 99.212V79.8434L90.6396 79.7681C90.8979 78.6449 91.2657 77.7668 91.9851 77.1132C92.6911 76.4719 93.6504 76.1262 94.8983 75.856L94.9695 75.8406ZM95.1158 77.2006C93.9695 77.4543 93.3226 77.7357 92.8996 78.1199C92.4919 78.4903 92.2125 79.0302 91.9823 79.999V97.3114C92.7517 96.9927 93.3293 96.6274 93.8282 96.1538C94.4917 95.5241 95.058 94.6637 95.727 93.349L96.082 81.2806H103.202V93.3407C104.011 94.7507 104.696 95.5883 105.42 96.1806C105.963 96.6236 106.55 96.9483 107.282 97.2685V80.005C107.024 78.9979 106.714 78.4459 106.295 78.0781C105.862 77.6971 105.228 77.4376 104.149 77.2006H95.1158Z" fill="white"/>
<path fill-rule="evenodd" clip-rule="evenodd" d="M87.4943 73.2566C89.2553 71.9358 91.7773 70.7406 94.0223 70.7406C94.7699 70.7406 95.4975 71.1611 96.1032 71.6334C96.733 72.1245 97.3508 72.768 97.8948 73.3991C98.4419 74.0337 98.9314 74.6758 99.3018 75.1751C99.376 75.2751 99.4477 75.3725 99.5143 75.4631C99.6105 75.3154 99.7232 75.1376 99.8472 74.9418C100.082 74.5707 100.358 74.1349 100.642 73.7167C101.095 73.0473 101.625 72.3327 102.19 71.7794C102.728 71.252 103.429 70.7406 104.222 70.7406C106.479 70.7406 108.667 71.8613 110.427 73.2696C110.624 73.4269 110.826 73.583 111.031 73.7408C112.496 74.87 114.076 76.0872 114.415 78.4644C114.509 79.1177 114.55 81.1127 114.566 83.651C114.582 86.2214 114.571 89.423 114.55 92.5477C114.528 95.6729 114.497 98.7235 114.47 100.993C114.457 102.127 114.445 103.067 114.436 103.722C114.432 104.05 114.428 104.307 114.426 104.482L114.422 104.749L114.422 104.75C114.422 104.75 114.422 104.75 113.742 104.741L114.422 104.75L114.404 106.039L113.351 105.296C113.279 105.246 113.208 105.196 113.137 105.146C111.746 104.166 110.667 103.407 109.773 102.482C108.814 101.489 108.086 100.329 107.335 98.544L108.589 98.0171C109.295 99.6967 109.941 100.699 110.751 101.537C111.374 102.181 112.104 102.742 113.08 103.439C113.088 102.806 113.099 101.965 113.11 100.977C113.137 98.7089 113.169 95.6607 113.19 92.5384C113.211 89.4157 113.222 86.221 113.206 83.6595C113.19 81.0659 113.146 79.1935 113.069 78.6567C112.812 76.859 111.703 75.9936 110.222 74.8391C110.014 74.6767 109.799 74.5087 109.577 74.3316C107.938 73.0198 106.045 72.1006 104.222 72.1006C103.996 72.1006 103.634 72.2691 103.141 72.7511C102.676 73.2072 102.207 73.8313 101.768 74.4794C101.49 74.8897 101.246 75.2753 101.023 75.628C100.885 75.845 100.756 76.0496 100.631 76.2398C100.481 76.4694 100.329 76.6907 100.193 76.8466C100.132 76.9163 100.027 77.0284 99.8897 77.108C99.8185 77.1491 99.6875 77.2119 99.5151 77.2157C99.3143 77.2201 99.1228 77.1428 98.9814 77.0014C98.8935 76.9135 98.7715 76.7484 98.6676 76.6079C98.6167 76.539 98.5631 76.4658 98.5052 76.3868C98.418 76.2679 98.3212 76.1359 98.2096 75.9854C97.8469 75.4966 97.3801 74.8849 96.8647 74.2871C96.3462 73.6856 95.7953 73.1179 95.2669 72.7058C94.7145 72.2751 94.2946 72.1006 94.0223 72.1006C92.1872 72.1006 89.9492 73.1153 88.3103 74.3446C86.7212 75.5363 85.8188 76.8375 85.513 78.6723C85.4814 78.862 85.4586 79.4012 85.4538 80.2749C85.4492 81.1222 85.4611 82.2262 85.4849 83.4991C85.5327 86.0439 85.6282 89.2487 85.7344 92.3926C85.8406 95.5359 85.9574 98.6158 86.0477 100.91C86.0885 101.949 86.124 102.826 86.1505 103.476C87.033 102.834 87.7308 102.235 88.3476 101.557C89.1807 100.642 89.8903 99.5545 90.6963 97.9719L91.9082 98.5892C91.0698 100.235 90.2962 101.436 89.3537 102.472C88.4125 103.507 87.327 104.35 85.9006 105.306L84.894 105.98L84.8429 104.769L85.5223 104.741C84.8429 104.769 84.8429 104.769 84.8429 104.769L84.8315 104.497C84.8241 104.32 84.8133 104.059 84.7997 103.727C84.7724 103.063 84.7339 102.111 84.6887 100.964C84.5984 98.6678 84.4814 95.5852 84.3751 92.4385C84.2689 89.2924 84.1731 86.0797 84.1252 83.5246C84.1012 82.2474 84.0892 81.1308 84.0939 80.2675C84.0984 79.4305 84.1181 78.7691 84.1715 78.4488C84.5457 76.2037 85.6833 74.6148 87.4943 73.2566Z" fill="white"/>
<path fill-rule="evenodd" clip-rule="evenodd" d="M84.9326 68.7301C86.6158 67.608 88.7725 66.6176 90.7556 67.0142C92.6725 67.3976 93.911 68.55 94.6572 69.5761C95.0303 70.0891 95.2861 70.5776 95.4495 70.9393C95.5314 71.1206 95.5907 71.2716 95.6303 71.3798C95.6501 71.4339 95.6651 71.4775 95.6755 71.5089C95.6807 71.5247 95.6848 71.5374 95.6878 71.5469L95.6915 71.5587L95.6927 71.5628L95.6932 71.5644L95.6934 71.565C95.6934 71.565 95.6936 71.5656 95.0422 71.761C94.3909 71.9564 94.3911 71.9569 94.3911 71.9569L94.3907 71.9556L94.3844 71.9364C94.3782 71.9178 94.368 71.8876 94.3532 71.8474C94.3238 71.767 94.2769 71.6471 94.21 71.499C94.0758 71.2019 93.8642 70.798 93.5573 70.376C92.9435 69.5321 91.972 68.6445 90.4889 68.3478C89.072 68.0644 87.3187 68.7739 85.6869 69.8617C84.0833 70.9308 82.7831 72.2397 82.3263 72.849C81.3406 74.1635 80.7072 75.1088 80.0561 77.3878C80.0328 77.4695 79.9996 77.6679 79.9673 78.0153C79.9363 78.3475 79.9093 78.7752 79.8863 79.2882C79.8404 80.3133 79.8112 81.655 79.7953 83.2059C79.7635 86.3065 79.7847 90.2214 79.8272 94.0661C79.8697 97.91 79.9334 101.68 79.9865 104.489C80.0131 105.894 80.037 107.058 80.0542 107.871C80.0566 107.981 80.0588 108.085 80.0609 108.183C80.837 107.868 81.4838 107.542 82.1187 107.102C82.9838 106.502 83.8589 105.667 85.001 104.304L86.0435 105.178C84.8605 106.59 83.8967 107.524 82.8936 108.219C81.888 108.916 80.8749 109.351 79.6336 109.8L78.7442 110.122L78.7224 109.177L79.4023 109.161C78.7224 109.177 78.7224 109.177 78.7224 109.177L78.7149 108.843C78.7101 108.626 78.7032 108.307 78.6945 107.9C78.6772 107.086 78.6533 105.921 78.6267 104.515C78.5736 101.704 78.5098 97.9298 78.4673 94.0812C78.4248 90.2334 78.4035 86.3071 78.4354 83.192C78.4514 81.6351 78.4807 80.2754 78.5277 79.2273C78.5512 78.7036 78.5793 78.2518 78.6131 77.8891C78.6455 77.5418 78.6868 77.2301 78.7484 77.0142C79.4573 74.5326 80.1839 73.4392 81.2382 72.0331C81.8014 71.2821 83.2212 69.871 84.9326 68.7301Z" fill="white"/>
<path fill-rule="evenodd" clip-rule="evenodd" d="M113.112 68.4571C111.485 67.4897 109.631 66.8121 107.887 67.0058C106.095 67.2049 104.922 68.3027 104.221 69.2839C103.869 69.7767 103.625 70.2551 103.468 70.6098C103.389 70.7879 103.331 70.9369 103.293 71.0436C103.273 71.097 103.259 71.1399 103.249 71.1709C103.243 71.1864 103.239 71.1988 103.237 71.2081L103.233 71.2196L103.232 71.2236L103.231 71.225C103.231 71.225 103.231 71.2262 103.882 71.4216C104.534 71.617 104.533 71.6175 104.533 71.6175L104.534 71.6156L104.54 71.5958C104.547 71.5768 104.557 71.5464 104.572 71.5061C104.601 71.4256 104.647 71.3062 104.711 71.1603C104.841 70.8669 105.043 70.474 105.328 70.0744C105.902 69.2705 106.77 68.4983 108.037 68.3575C109.354 68.2112 110.899 68.7235 112.417 69.6261C113.921 70.5202 115.31 71.7455 116.286 72.8842C117.309 74.0781 117.76 74.6942 118.014 75.237C118.251 75.7452 118.328 76.2119 118.486 77.1607C118.494 77.2102 118.503 77.2612 118.512 77.3135C118.544 77.5088 118.576 78.1407 118.6 79.1759C118.623 80.1832 118.638 81.5146 118.646 83.059C118.662 86.1472 118.651 90.0756 118.63 93.9425C118.609 97.8089 118.577 101.612 118.55 104.448C118.537 105.866 118.525 107.043 118.516 107.865C118.515 108.005 118.513 108.135 118.512 108.254C117.734 107.993 117.128 107.687 116.581 107.253C115.843 106.668 115.161 105.812 114.328 104.397L113.156 105.086C114.024 106.562 114.807 107.583 115.737 108.319C116.673 109.062 117.709 109.475 119.008 109.819L119.852 110.043L119.862 109.169L119.182 109.162C119.862 109.169 119.862 109.169 119.862 109.169L119.866 108.833C119.868 108.613 119.872 108.29 119.876 107.879C119.885 107.057 119.897 105.88 119.91 104.461C119.937 101.623 119.968 97.8187 119.99 93.95C120.011 90.0817 120.022 86.1475 120.006 83.052C119.998 81.5047 119.983 80.164 119.96 79.1447C119.937 78.1533 119.905 77.4041 119.853 77.0898C119.84 77.0134 119.828 76.9388 119.816 76.8658C119.672 75.9949 119.565 75.3452 119.246 74.662C118.904 73.9295 118.335 73.1851 117.319 71.9991C116.255 70.7577 114.754 69.4331 113.112 68.4571Z" fill="white"/>
<path d="M43.0287 132C42.8953 132 42.742 131.973 42.5687 131.92C42.4087 131.853 42.2753 131.767 42.1687 131.66C42.0753 131.553 42.0287 131.433 42.0287 131.3C42.0287 131.247 42.0353 131.193 42.0487 131.14L46.1487 117.84C46.202 117.64 46.3287 117.493 46.5287 117.4C46.7287 117.307 46.942 117.26 47.1687 117.26C47.4087 117.26 47.6287 117.313 47.8287 117.42C48.0287 117.513 48.1553 117.653 48.2087 117.84L52.2887 131.14C52.3153 131.193 52.3287 131.24 52.3287 131.28C52.3287 131.413 52.2687 131.533 52.1487 131.64C52.042 131.747 51.9087 131.833 51.7487 131.9C51.5887 131.967 51.4353 132 51.2887 132C51.142 132 51.0153 131.973 50.9087 131.92C50.802 131.853 50.7287 131.753 50.6887 131.62L49.7887 128.64H44.5287L43.6687 131.62C43.6287 131.753 43.5487 131.853 43.4287 131.92C43.322 131.973 43.1887 132 43.0287 132ZM44.9287 127.26H49.4087L47.1687 119.74L44.9287 127.26ZM58.508 132.16C57.7747 132.16 57.108 131.98 56.508 131.62C55.908 131.26 55.428 130.787 55.068 130.2C54.708 129.613 54.528 128.987 54.528 128.32V123.12C54.528 122.973 54.608 122.84 54.768 122.72C54.9414 122.587 55.1414 122.52 55.368 122.52C55.5947 122.52 55.788 122.587 55.948 122.72C56.108 122.84 56.188 122.973 56.188 123.12V128.32C56.188 128.707 56.288 129.08 56.488 129.44C56.7014 129.8 56.9814 130.093 57.328 130.32C57.6747 130.547 58.0614 130.66 58.488 130.66C58.9147 130.66 59.3014 130.547 59.648 130.32C59.9947 130.093 60.268 129.8 60.468 129.44C60.668 129.08 60.768 128.707 60.768 128.32V123.1C60.768 122.94 60.8547 122.807 61.028 122.7C61.2014 122.58 61.3947 122.52 61.608 122.52C61.8614 122.52 62.0614 122.58 62.208 122.7C62.3547 122.807 62.428 122.94 62.428 123.1V128.32C62.428 129 62.248 129.633 61.888 130.22C61.5414 130.793 61.068 131.26 60.468 131.62C59.868 131.98 59.2147 132.16 58.508 132.16ZM68.8862 132C67.8062 132 66.9795 131.76 66.4062 131.28C65.8462 130.8 65.5662 130.033 65.5662 128.98V118.68C65.5662 118.507 65.6528 118.367 65.8262 118.26C65.9995 118.153 66.1862 118.1 66.3862 118.1C66.5995 118.1 66.7928 118.153 66.9662 118.26C67.1395 118.367 67.2262 118.507 67.2262 118.68V122.52H69.7462C69.9062 122.52 70.0262 122.587 70.1062 122.72C70.1995 122.853 70.2462 123.007 70.2462 123.18C70.2462 123.353 70.1995 123.507 70.1062 123.64C70.0262 123.76 69.9062 123.82 69.7462 123.82H67.2262V128.98C67.2262 129.553 67.3462 129.96 67.5862 130.2C67.8395 130.427 68.2728 130.54 68.8862 130.54H69.5062C69.7462 130.54 69.9262 130.613 70.0462 130.76C70.1662 130.907 70.2262 131.073 70.2262 131.26C70.2262 131.447 70.1662 131.62 70.0462 131.78C69.9262 131.927 69.7462 132 69.5062 132H68.8862ZM76.0823 132.16C75.3756 132.16 74.7223 131.98 74.1223 131.62C73.5223 131.247 73.0423 130.767 72.6823 130.18C72.3223 129.593 72.1423 128.96 72.1423 128.28V126.24C72.1423 125.56 72.3156 124.933 72.6623 124.36C73.0223 123.773 73.5023 123.3 74.1023 122.94C74.7023 122.58 75.3623 122.4 76.0823 122.4C76.7889 122.4 77.4423 122.58 78.0423 122.94C78.6423 123.287 79.1223 123.747 79.4823 124.32C79.8556 124.893 80.0423 125.533 80.0423 126.24V128.28C80.0423 128.947 79.8556 129.58 79.4823 130.18C79.1223 130.767 78.6423 131.247 78.0423 131.62C77.4423 131.98 76.7889 132.16 76.0823 132.16ZM76.0823 130.66C76.5089 130.66 76.8889 130.547 77.2223 130.32C77.5689 130.093 77.8489 129.8 78.0623 129.44C78.2756 129.067 78.3823 128.68 78.3823 128.28V126.24C78.3823 125.853 78.2756 125.48 78.0623 125.12C77.8623 124.76 77.5889 124.467 77.2423 124.24C76.8956 124.013 76.5089 123.9 76.0823 123.9C75.6556 123.9 75.2689 124.013 74.9223 124.24C74.5756 124.467 74.3023 124.76 74.1023 125.12C73.9023 125.48 73.8023 125.853 73.8023 126.24V128.28C73.8023 128.68 73.9023 129.067 74.1023 129.44C74.3023 129.8 74.5756 130.093 74.9223 130.32C75.2689 130.547 75.6556 130.66 76.0823 130.66ZM87.3335 132.12C86.5202 132.12 85.7868 131.98 85.1335 131.7C84.4935 131.407 83.9802 130.94 83.5935 130.3C83.2202 129.66 83.0335 128.813 83.0335 127.76V121.74C83.0335 120.687 83.2202 119.84 83.5935 119.2C83.9802 118.56 84.4935 118.1 85.1335 117.82C85.7868 117.527 86.5068 117.38 87.2935 117.38C88.1735 117.38 88.9335 117.533 89.5735 117.84C90.2268 118.133 90.7335 118.547 91.0935 119.08C91.4668 119.613 91.6535 120.24 91.6535 120.96C91.6535 121.28 91.5802 121.5 91.4335 121.62C91.2868 121.727 91.0802 121.78 90.8135 121.78C90.5868 121.78 90.3935 121.74 90.2335 121.66C90.0735 121.567 89.9868 121.413 89.9735 121.2C89.9202 120.733 89.8002 120.333 89.6135 120C89.4268 119.653 89.1468 119.387 88.7735 119.2C88.4002 119 87.9202 118.9 87.3335 118.9C86.5068 118.9 85.8602 119.133 85.3935 119.6C84.9402 120.053 84.7135 120.767 84.7135 121.74V127.76C84.7135 128.733 84.9402 129.453 85.3935 129.92C85.8602 130.373 86.5068 130.6 87.3335 130.6C88.1602 130.6 88.8068 130.373 89.2735 129.92C89.7402 129.453 89.9735 128.733 89.9735 127.76V125.72H87.5935C87.4068 125.72 87.2602 125.647 87.1535 125.5C87.0602 125.353 87.0135 125.193 87.0135 125.02C87.0135 124.847 87.0602 124.687 87.1535 124.54C87.2602 124.393 87.4068 124.32 87.5935 124.32H91.0735C91.2602 124.32 91.4002 124.38 91.4935 124.5C91.6002 124.62 91.6535 124.767 91.6535 124.94V127.76C91.6535 128.813 91.4602 129.66 91.0735 130.3C90.7002 130.94 90.1868 131.407 89.5335 131.7C88.8802 131.98 88.1468 132.12 87.3335 132.12ZM98.612 132.16C97.8786 132.16 97.212 131.98 96.612 131.62C96.012 131.26 95.532 130.787 95.172 130.2C94.812 129.613 94.632 128.987 94.632 128.32V123.12C94.632 122.973 94.712 122.84 94.872 122.72C95.0453 122.587 95.2453 122.52 95.472 122.52C95.6986 122.52 95.892 122.587 96.052 122.72C96.212 122.84 96.292 122.973 96.292 123.12V128.32C96.292 128.707 96.392 129.08 96.592 129.44C96.8053 129.8 97.0853 130.093 97.432 130.32C97.7786 130.547 98.1653 130.66 98.592 130.66C99.0186 130.66 99.4053 130.547 99.752 130.32C100.099 130.093 100.372 129.8 100.572 129.44C100.772 129.08 100.872 128.707 100.872 128.32V123.1C100.872 122.94 100.959 122.807 101.132 122.7C101.305 122.58 101.499 122.52 101.712 122.52C101.965 122.52 102.165 122.58 102.312 122.7C102.459 122.807 102.532 122.94 102.532 123.1V128.32C102.532 129 102.352 129.633 101.992 130.22C101.645 130.793 101.172 131.26 100.572 131.62C99.972 131.98 99.3186 132.16 98.612 132.16ZM107.79 132.16C107.043 132.16 106.403 131.947 105.87 131.52C105.35 131.08 105.09 130.407 105.09 129.5C105.09 128.767 105.29 128.2 105.69 127.8C106.09 127.387 106.637 127.107 107.33 126.96C108.037 126.8 108.85 126.72 109.77 126.72H110.73V126.3C110.73 125.9 110.657 125.513 110.51 125.14C110.363 124.753 110.13 124.44 109.81 124.2C109.503 123.947 109.077 123.82 108.53 123.82C108.063 123.82 107.69 123.867 107.41 123.96C107.143 124.053 106.93 124.153 106.77 124.26C106.61 124.353 106.47 124.4 106.35 124.4C106.15 124.4 105.997 124.307 105.89 124.12C105.783 123.92 105.73 123.733 105.73 123.56C105.73 123.347 105.877 123.153 106.17 122.98C106.463 122.807 106.83 122.667 107.27 122.56C107.71 122.453 108.143 122.4 108.57 122.4C109.503 122.4 110.25 122.587 110.81 122.96C111.37 123.333 111.77 123.813 112.01 124.4C112.263 124.987 112.39 125.613 112.39 126.28V131.4C112.39 131.56 112.31 131.7 112.15 131.82C112.003 131.94 111.81 132 111.57 132C111.357 132 111.177 131.94 111.03 131.82C110.883 131.7 110.81 131.56 110.81 131.4V130.6C110.463 131 110.043 131.36 109.55 131.68C109.057 132 108.47 132.16 107.79 132.16ZM108.31 130.82C108.697 130.82 109.07 130.713 109.43 130.5C109.803 130.287 110.11 130.02 110.35 129.7C110.603 129.38 110.73 129.073 110.73 128.78V127.74H110.03C109.47 127.74 108.937 127.773 108.43 127.84C107.937 127.907 107.537 128.053 107.23 128.28C106.923 128.493 106.77 128.84 106.77 129.32C106.77 129.84 106.917 130.22 107.21 130.46C107.503 130.7 107.87 130.82 108.31 130.82ZM116.355 132C116.129 132 115.935 131.94 115.775 131.82C115.629 131.687 115.555 131.547 115.555 131.4V123.1C115.555 122.927 115.629 122.787 115.775 122.68C115.935 122.573 116.129 122.52 116.355 122.52C116.582 122.52 116.769 122.573 116.915 122.68C117.062 122.787 117.135 122.927 117.135 123.1V124.04C117.282 123.76 117.482 123.5 117.735 123.26C117.989 123.007 118.282 122.8 118.615 122.64C118.962 122.48 119.342 122.4 119.755 122.4H120.435C120.609 122.4 120.755 122.473 120.875 122.62C121.009 122.767 121.075 122.947 121.075 123.16C121.075 123.36 121.009 123.533 120.875 123.68C120.755 123.827 120.609 123.9 120.435 123.9H119.755C119.329 123.9 118.922 124.02 118.535 124.26C118.149 124.5 117.829 124.84 117.575 125.28C117.335 125.707 117.215 126.227 117.215 126.84V131.4C117.215 131.547 117.129 131.687 116.955 131.82C116.795 131.94 116.595 132 116.355 132ZM126.1 132.16C125.474 132.16 124.887 131.98 124.34 131.62C123.807 131.247 123.374 130.767 123.04 130.18C122.72 129.58 122.56 128.947 122.56 128.28V126.24C122.56 125.533 122.72 124.893 123.04 124.32C123.374 123.747 123.807 123.287 124.34 122.94C124.887 122.58 125.487 122.4 126.14 122.4C126.78 122.4 127.32 122.56 127.76 122.88C128.214 123.187 128.547 123.533 128.76 123.92V117.38C128.76 117.207 128.84 117.067 129 116.96C129.174 116.853 129.38 116.8 129.62 116.8C129.86 116.8 130.054 116.853 130.2 116.96C130.347 117.067 130.42 117.207 130.42 117.38V131.4C130.42 131.547 130.347 131.687 130.2 131.82C130.054 131.94 129.86 132 129.62 132C129.407 132 129.22 131.94 129.06 131.82C128.914 131.687 128.84 131.547 128.84 131.4V130.6C128.64 131.013 128.287 131.38 127.78 131.7C127.274 132.007 126.714 132.16 126.1 132.16ZM126.5 130.66C126.927 130.66 127.307 130.547 127.64 130.32C127.987 130.08 128.26 129.813 128.46 129.52C128.66 129.227 128.76 128.993 128.76 128.82V126.24C128.76 125.747 128.647 125.333 128.42 125C128.207 124.653 127.927 124.387 127.58 124.2C127.234 124 126.88 123.9 126.52 123.9C126.094 123.9 125.707 124.013 125.36 124.24C125.014 124.467 124.734 124.76 124.52 125.12C124.32 125.48 124.22 125.853 124.22 126.24V128.28C124.22 128.667 124.32 129.047 124.52 129.42C124.734 129.793 125.014 130.093 125.36 130.32C125.707 130.547 126.087 130.66 126.5 130.66ZM134.523 119.92C134.243 119.92 133.996 119.827 133.783 119.64C133.583 119.44 133.483 119.213 133.483 118.96C133.483 118.707 133.583 118.487 133.783 118.3C133.996 118.113 134.243 118.02 134.523 118.02C134.816 118.02 135.056 118.113 135.243 118.3C135.443 118.487 135.543 118.707 135.543 118.96C135.543 119.213 135.443 119.44 135.243 119.64C135.056 119.827 134.816 119.92 134.523 119.92ZM134.523 132C134.283 132 134.083 131.94 133.923 131.82C133.776 131.687 133.703 131.547 133.703 131.4V123.1C133.703 122.927 133.776 122.787 133.923 122.68C134.083 122.573 134.283 122.52 134.523 122.52C134.75 122.52 134.943 122.573 135.103 122.68C135.276 122.787 135.363 122.927 135.363 123.1V131.4C135.363 131.547 135.276 131.687 135.103 131.82C134.943 131.94 134.75 132 134.523 132ZM140.687 132.16C139.94 132.16 139.3 131.947 138.767 131.52C138.247 131.08 137.987 130.407 137.987 129.5C137.987 128.767 138.187 128.2 138.587 127.8C138.987 127.387 139.534 127.107 140.227 126.96C140.934 126.8 141.747 126.72 142.667 126.72H143.627V126.3C143.627 125.9 143.554 125.513 143.407 125.14C143.26 124.753 143.027 124.44 142.707 124.2C142.4 123.947 141.974 123.82 141.427 123.82C140.96 123.82 140.587 123.867 140.307 123.96C140.04 124.053 139.827 124.153 139.667 124.26C139.507 124.353 139.367 124.4 139.247 124.4C139.047 124.4 138.894 124.307 138.787 124.12C138.68 123.92 138.627 123.733 138.627 123.56C138.627 123.347 138.774 123.153 139.067 122.98C139.36 122.807 139.727 122.667 140.167 122.56C140.607 122.453 141.04 122.4 141.467 122.4C142.4 122.4 143.147 122.587 143.707 122.96C144.267 123.333 144.667 123.813 144.907 124.4C145.16 124.987 145.287 125.613 145.287 126.28V131.4C145.287 131.56 145.207 131.7 145.047 131.82C144.9 131.94 144.707 132 144.467 132C144.254 132 144.074 131.94 143.927 131.82C143.78 131.7 143.707 131.56 143.707 131.4V130.6C143.36 131 142.94 131.36 142.447 131.68C141.954 132 141.367 132.16 140.687 132.16ZM141.207 130.82C141.594 130.82 141.967 130.713 142.327 130.5C142.7 130.287 143.007 130.02 143.247 129.7C143.5 129.38 143.627 129.073 143.627 128.78V127.74H142.927C142.367 127.74 141.834 127.773 141.327 127.84C140.834 127.907 140.434 128.053 140.127 128.28C139.82 128.493 139.667 128.84 139.667 129.32C139.667 129.84 139.814 130.22 140.107 130.46C140.4 130.7 140.767 130.82 141.207 130.82ZM149.272 132C149.032 132 148.832 131.94 148.672 131.82C148.526 131.687 148.452 131.547 148.452 131.4V123.1C148.452 122.927 148.526 122.787 148.672 122.68C148.832 122.573 149.032 122.52 149.272 122.52C149.486 122.52 149.666 122.573 149.812 122.68C149.959 122.787 150.032 122.927 150.032 123.1V123.92C150.246 123.533 150.579 123.187 151.032 122.88C151.486 122.56 152.046 122.4 152.712 122.4C153.352 122.4 153.939 122.58 154.472 122.94C155.006 123.287 155.432 123.747 155.752 124.32C156.072 124.893 156.232 125.533 156.232 126.24V131.4C156.232 131.6 156.146 131.753 155.972 131.86C155.799 131.953 155.606 132 155.392 132C155.192 132 155.006 131.953 154.832 131.86C154.659 131.753 154.572 131.6 154.572 131.4V126.24C154.572 125.853 154.466 125.48 154.252 125.12C154.052 124.76 153.779 124.467 153.432 124.24C153.086 124.013 152.706 123.9 152.292 123.9C151.932 123.9 151.586 124 151.252 124.2C150.919 124.387 150.646 124.653 150.432 125C150.219 125.333 150.112 125.747 150.112 126.24V131.4C150.112 131.547 150.026 131.687 149.852 131.82C149.692 131.94 149.499 132 149.272 132Z" fill="white"/>
</svg>
