<svg width="192" height="131" viewBox="0 0 192 131" fill="none" xmlns="http://www.w3.org/2000/svg">
<path fill-rule="evenodd" clip-rule="evenodd" d="M89.5899 34.9793C92.3484 37.4707 94.3973 38.5615 96.3036 38.5532C98.202 38.5449 100.161 37.445 102.739 34.9927C102.002 34.5331 101.311 34.1418 100.654 33.8171C99.9357 35.8394 98.1378 36.8713 96.308 36.8713C94.4636 36.8713 92.5852 35.8273 91.7185 33.7849C91.0501 34.1112 90.3449 34.5082 89.5899 34.9793ZM92.9658 33.242C93.6104 34.7701 94.9814 35.5113 96.308 35.5113C97.6322 35.5113 98.9105 34.7773 99.4043 33.2655C97.7541 32.6302 96.2854 32.4621 94.7542 32.7368C94.1778 32.8402 93.5859 33.0075 92.9658 33.242ZM98.9854 31.6846C97.9063 31.081 96.9276 30.8188 95.99 30.8419C95.0825 30.8642 94.1607 31.1545 93.1715 31.7317C93.6239 31.5892 94.0703 31.4778 94.514 31.3982C96.0289 31.1264 97.4775 31.2309 98.9854 31.6846ZM95.9565 29.4823C98.6355 29.4163 101.24 31.1381 104.323 34.4161L104.776 34.8977L104.307 35.364C101.399 38.2563 98.9404 39.9017 96.3096 39.9132C93.6848 39.9246 91.1241 38.3077 88.0158 35.3767L87.5237 34.9127L87.985 34.4181C90.8155 31.3839 93.289 29.548 95.9565 29.4823Z" fill="white"/>
<path fill-rule="evenodd" clip-rule="evenodd" d="M91.4695 47.8406H100.795L100.865 47.8558C102.037 48.1078 102.978 48.4279 103.693 49.0567C104.422 49.6973 104.83 50.5795 105.122 51.7568L105.142 51.8375V71.2739L104.216 70.9145C102.999 70.4419 101.988 69.9925 101.06 69.2337C100.129 68.4731 99.3227 67.4382 98.4299 65.8545L98.3423 65.699V54.6406H93.9026L93.5775 65.6912L93.5099 65.8259C92.79 67.2585 92.1233 68.3251 91.2645 69.1402C90.3941 69.9664 89.3714 70.4926 88.0094 70.9282L87.1223 71.212V51.8434L87.1396 51.7681C87.3979 50.6449 87.7657 49.7668 88.4852 49.1132C89.1911 48.4719 90.1505 48.1262 91.3984 47.856L91.4695 47.8406ZM91.6158 49.2006C90.4695 49.4543 89.8226 49.7357 89.3996 50.1199C88.9919 50.4903 88.7125 51.0302 88.4823 51.999V69.3114C89.2517 68.9927 89.8293 68.6274 90.3282 68.1538C90.9917 67.5241 91.5581 66.6637 92.227 65.349L92.582 53.2806H99.7023V65.3407C100.511 66.7507 101.196 67.5883 101.92 68.1806C102.463 68.6236 103.05 68.9483 103.782 69.2685V52.005C103.524 50.9979 103.214 50.4459 102.795 50.0781C102.362 49.6971 101.728 49.4376 100.649 49.2006H91.6158Z" fill="white"/>
<path fill-rule="evenodd" clip-rule="evenodd" d="M83.9943 45.2566C85.7553 43.9358 88.2773 42.7406 90.5223 42.7406C91.2699 42.7406 91.9975 43.1611 92.6032 43.6334C93.233 44.1245 93.8508 44.768 94.3948 45.3991C94.9419 46.0337 95.4314 46.6758 95.8018 47.1751C95.876 47.2751 95.9477 47.3725 96.0143 47.4631C96.1105 47.3154 96.2232 47.1376 96.3472 46.9418C96.5823 46.5707 96.8585 46.1349 97.1418 45.7167C97.5952 45.0473 98.125 44.3327 98.6899 43.7794C99.2284 43.252 99.9286 42.7406 100.722 42.7406C102.979 42.7406 105.167 43.8613 106.927 45.2696C107.124 45.4269 107.326 45.583 107.531 45.7408C108.996 46.87 110.576 48.0872 110.915 50.4644C111.009 51.1177 111.05 53.1127 111.066 55.651C111.082 58.2214 111.071 61.423 111.05 64.5477C111.028 67.6729 110.997 70.7235 110.97 72.9926C110.957 74.1272 110.945 75.0665 110.936 75.7222C110.932 76.0501 110.928 76.307 110.926 76.4821L110.922 76.7492L110.922 76.75C110.922 76.75 110.922 76.7503 110.242 76.7406L110.922 76.75L110.904 78.0386L109.851 77.2964C109.779 77.2457 109.708 77.1957 109.637 77.1462C108.246 76.1662 107.167 75.4066 106.273 74.4817C105.314 73.4893 104.586 72.3291 103.835 70.544L105.089 70.0171C105.795 71.6967 106.442 72.6989 107.251 73.5366C107.874 74.1814 108.604 74.7417 109.58 75.4391C109.588 74.8057 109.599 73.9654 109.61 72.9767C109.637 70.7089 109.669 67.6607 109.69 64.5384C109.711 61.4157 109.722 58.221 109.706 55.6595C109.69 53.0659 109.646 51.1935 109.569 50.6567C109.312 48.859 108.203 47.9936 106.722 46.8391C106.514 46.6767 106.299 46.5087 106.077 46.3316C104.438 45.0198 102.545 44.1006 100.722 44.1006C100.496 44.1006 100.134 44.2691 99.6415 44.7511C99.1758 45.2072 98.7068 45.8313 98.2677 46.4794C97.9898 46.8897 97.7459 47.2753 97.5227 47.628C97.3854 47.845 97.256 48.0496 97.1314 48.2398C96.981 48.4694 96.829 48.6907 96.6927 48.8466C96.6317 48.9163 96.5274 49.0284 96.3897 49.108C96.3185 49.1491 96.1876 49.2119 96.0151 49.2157C95.8144 49.2201 95.6228 49.1428 95.4814 49.0014C95.3936 48.9135 95.2715 48.7484 95.1676 48.6079C95.1168 48.539 95.0631 48.4658 95.0052 48.3868C94.918 48.2679 94.8212 48.1359 94.7096 47.9854C94.3469 47.4966 93.8801 46.8849 93.3647 46.2871C92.8462 45.6856 92.2953 45.1179 91.7669 44.7058C91.2145 44.2751 90.7946 44.1006 90.5223 44.1006C88.6872 44.1006 86.4492 45.1153 84.8103 46.3446C83.2213 47.5363 82.3188 48.8375 82.013 50.6723C81.9814 50.862 81.9586 51.4012 81.9539 52.2749C81.9493 53.1222 81.9611 54.2262 81.985 55.4991C82.0327 58.0439 82.1282 61.2487 82.2344 64.3926C82.3406 67.5359 82.4574 70.6158 82.5477 72.9101C82.5886 73.9489 82.624 74.8265 82.6505 75.4759C83.533 74.8343 84.2308 74.2354 84.8477 73.5573C85.6807 72.6415 86.3903 71.5545 87.1963 69.9719L88.4082 70.5892C87.5698 72.2352 86.7962 73.4363 85.8537 74.4724C84.9125 75.5071 83.827 76.3504 82.4006 77.3056L81.394 77.9796L81.3429 76.7693L82.0223 76.7406C81.3429 76.7693 81.3429 76.7693 81.3429 76.7693L81.3315 76.4973C81.3241 76.3198 81.3133 76.0594 81.2997 75.7272C81.2724 75.0628 81.2339 74.1115 81.1887 72.9636C81.0984 70.6678 80.9815 67.5852 80.8752 64.4385C80.7689 61.2924 80.6731 58.0797 80.6252 55.5246C80.6013 54.2474 80.5892 53.1308 80.5939 52.2675C80.5984 51.4305 80.6181 50.7691 80.6715 50.4488C81.0457 48.2037 82.1833 46.6148 83.9943 45.2566Z" fill="white"/>
<path fill-rule="evenodd" clip-rule="evenodd" d="M81.4326 40.7301C83.1158 39.608 85.2725 38.6176 87.2556 39.0142C89.1725 39.3976 90.411 40.55 91.1572 41.5761C91.5303 42.0891 91.7862 42.5776 91.9495 42.9393C92.0314 43.1206 92.0907 43.2716 92.1303 43.3798C92.1502 43.4339 92.1651 43.4775 92.1755 43.5089C92.1807 43.5247 92.1848 43.5374 92.1878 43.5469L92.1915 43.5587L92.1927 43.5628L92.1932 43.5644L92.1934 43.565C92.1934 43.565 92.1936 43.5656 91.5423 43.761C90.8909 43.9564 90.8911 43.9569 90.8911 43.9569L90.8907 43.9556L90.8844 43.9364C90.8783 43.9178 90.868 43.8876 90.8533 43.8474C90.8238 43.767 90.7769 43.6471 90.71 43.499C90.5759 43.2019 90.3642 42.798 90.0573 42.376C89.4436 41.5321 88.4721 40.6445 86.9889 40.3478C85.572 40.0644 83.8187 40.7739 82.187 41.8617C80.5833 42.9308 79.2832 44.2397 78.8263 44.849C77.8406 46.1635 77.2072 47.1088 76.5561 49.3878C76.5328 49.4695 76.4997 49.6679 76.4673 50.0153C76.4363 50.3475 76.4094 50.7752 76.3863 51.2882C76.3404 52.3133 76.3113 53.655 76.2954 55.2059C76.2636 58.3065 76.2847 62.2214 76.3272 66.0661C76.3697 69.91 76.4334 73.6799 76.4865 76.4892C76.5131 77.8937 76.537 79.0579 76.5542 79.8709C76.5566 79.9815 76.5588 80.0855 76.5609 80.1827C77.337 79.868 77.9838 79.5418 78.6187 79.1015C79.4838 78.5017 80.3589 77.6674 81.5011 76.3043L82.5435 77.1778C81.3605 78.5896 80.3967 79.5236 79.3937 80.2191C78.388 80.9165 77.375 81.3514 76.1336 81.8005L75.2442 82.1222L75.2224 81.1767L75.9023 81.161C75.2224 81.1767 75.2224 81.1767 75.2224 81.1767L75.215 80.8433C75.2101 80.6259 75.2032 80.3068 75.1945 79.8998C75.1773 79.0859 75.1533 77.9206 75.1268 76.5149C75.0736 73.7035 75.0098 69.9298 74.9673 66.0812C74.9248 62.2334 74.9035 58.3071 74.9354 55.192C74.9514 53.6351 74.9807 52.2754 75.0277 51.2273C75.0512 50.7036 75.0793 50.2518 75.1131 49.8891C75.1455 49.5418 75.1868 49.2301 75.2484 49.0142C75.9574 46.5326 76.6839 45.4392 77.7382 44.0331C78.3014 43.2821 79.7212 41.871 81.4326 40.7301Z" fill="white"/>
<path fill-rule="evenodd" clip-rule="evenodd" d="M109.612 40.4571C107.985 39.4897 106.131 38.8121 104.387 39.0058C102.595 39.2049 101.422 40.3027 100.721 41.2839C100.369 41.7767 100.125 42.2551 99.9677 42.6098C99.8888 42.7879 99.8312 42.9369 99.7926 43.0436C99.7733 43.097 99.7587 43.1399 99.7485 43.1709C99.7434 43.1864 99.7394 43.1988 99.7365 43.2081L99.733 43.2196L99.7318 43.2236L99.7313 43.225C99.7313 43.225 99.731 43.2262 100.382 43.4216C101.034 43.617 101.033 43.6175 101.033 43.6175L101.034 43.6156L101.04 43.5958C101.047 43.5768 101.057 43.5464 101.072 43.5061C101.101 43.4256 101.147 43.3062 101.211 43.1603C101.341 42.8669 101.543 42.474 101.828 42.0744C102.402 41.2705 103.27 40.4983 104.537 40.3575C105.854 40.2112 107.399 40.7235 108.917 41.6261C110.421 42.5202 111.81 43.7455 112.786 44.8842C113.809 46.0781 114.26 46.6942 114.514 47.237C114.751 47.7452 114.828 48.2119 114.986 49.1607C114.994 49.2102 115.003 49.2612 115.012 49.3135C115.044 49.5088 115.076 50.1407 115.1 51.1759C115.123 52.1832 115.138 53.5146 115.146 55.059C115.162 58.1472 115.151 62.0756 115.13 65.9425C115.109 69.8089 115.077 73.6118 115.05 76.4482C115.037 77.8664 115.025 79.0429 115.016 79.8648C115.015 80.0051 115.013 80.135 115.012 80.254C114.234 79.9928 113.628 79.6868 113.081 79.2533C112.343 78.6685 111.661 77.8123 110.828 76.3967L109.656 77.0865C110.524 78.5617 111.307 79.5829 112.237 80.3192C113.174 81.0616 114.209 81.4747 115.508 81.8189L116.352 82.0426L116.362 81.1693L115.682 81.1616C116.362 81.1693 116.362 81.1693 116.362 81.1693L116.366 80.8325C116.368 80.6128 116.372 80.2903 116.376 79.8791C116.385 79.0567 116.397 77.8797 116.41 76.4609C116.437 73.6235 116.469 69.8187 116.49 65.95C116.511 62.0817 116.522 58.1475 116.506 55.052C116.498 53.5047 116.483 52.164 116.46 51.1447C116.437 50.1533 116.405 49.4041 116.353 49.0898C116.34 49.0134 116.328 48.9388 116.316 48.8658C116.172 47.9949 116.065 47.3452 115.746 46.662C115.404 45.9295 114.835 45.1851 113.819 43.9991C112.755 42.7577 111.254 41.4331 109.612 40.4571Z" fill="white"/>
<path d="M39.5287 104C39.3953 104 39.242 103.973 39.0687 103.92C38.9087 103.853 38.7753 103.767 38.6687 103.66C38.5753 103.553 38.5287 103.433 38.5287 103.3C38.5287 103.247 38.5353 103.193 38.5487 103.14L42.6487 89.84C42.702 89.64 42.8287 89.4933 43.0287 89.4C43.2287 89.3067 43.442 89.26 43.6687 89.26C43.9087 89.26 44.1287 89.3133 44.3287 89.42C44.5287 89.5133 44.6553 89.6533 44.7087 89.84L48.7887 103.14C48.8153 103.193 48.8287 103.24 48.8287 103.28C48.8287 103.413 48.7687 103.533 48.6487 103.64C48.542 103.747 48.4087 103.833 48.2487 103.9C48.0887 103.967 47.9353 104 47.7887 104C47.642 104 47.5153 103.973 47.4087 103.92C47.302 103.853 47.2287 103.753 47.1887 103.62L46.2887 100.64H41.0287L40.1687 103.62C40.1287 103.753 40.0487 103.853 39.9287 103.92C39.822 103.973 39.6887 104 39.5287 104ZM41.4287 99.26H45.9087L43.6687 91.74L41.4287 99.26ZM55.008 104.16C54.2747 104.16 53.608 103.98 53.008 103.62C52.408 103.26 51.928 102.787 51.568 102.2C51.208 101.613 51.028 100.987 51.028 100.32V95.12C51.028 94.9733 51.108 94.84 51.268 94.72C51.4414 94.5867 51.6414 94.52 51.868 94.52C52.0947 94.52 52.288 94.5867 52.448 94.72C52.608 94.84 52.688 94.9733 52.688 95.12V100.32C52.688 100.707 52.788 101.08 52.988 101.44C53.2014 101.8 53.4814 102.093 53.828 102.32C54.1747 102.547 54.5614 102.66 54.988 102.66C55.4147 102.66 55.8014 102.547 56.148 102.32C56.4947 102.093 56.768 101.8 56.968 101.44C57.168 101.08 57.268 100.707 57.268 100.32V95.1C57.268 94.94 57.3547 94.8067 57.528 94.7C57.7014 94.58 57.8947 94.52 58.108 94.52C58.3614 94.52 58.5614 94.58 58.708 94.7C58.8547 94.8067 58.928 94.94 58.928 95.1V100.32C58.928 101 58.748 101.633 58.388 102.22C58.0414 102.793 57.568 103.26 56.968 103.62C56.368 103.98 55.7147 104.16 55.008 104.16ZM65.3862 104C64.3062 104 63.4795 103.76 62.9062 103.28C62.3462 102.8 62.0662 102.033 62.0662 100.98V90.68C62.0662 90.5067 62.1528 90.3667 62.3262 90.26C62.4995 90.1533 62.6862 90.1 62.8862 90.1C63.0995 90.1 63.2928 90.1533 63.4662 90.26C63.6395 90.3667 63.7262 90.5067 63.7262 90.68V94.52H66.2462C66.4062 94.52 66.5262 94.5867 66.6062 94.72C66.6995 94.8533 66.7462 95.0067 66.7462 95.18C66.7462 95.3533 66.6995 95.5067 66.6062 95.64C66.5262 95.76 66.4062 95.82 66.2462 95.82H63.7262V100.98C63.7262 101.553 63.8462 101.96 64.0862 102.2C64.3395 102.427 64.7728 102.54 65.3862 102.54H66.0062C66.2462 102.54 66.4262 102.613 66.5462 102.76C66.6662 102.907 66.7262 103.073 66.7262 103.26C66.7262 103.447 66.6662 103.62 66.5462 103.78C66.4262 103.927 66.2462 104 66.0062 104H65.3862ZM72.5823 104.16C71.8756 104.16 71.2223 103.98 70.6223 103.62C70.0223 103.247 69.5423 102.767 69.1823 102.18C68.8223 101.593 68.6423 100.96 68.6423 100.28V98.24C68.6423 97.56 68.8156 96.9333 69.1623 96.36C69.5223 95.7733 70.0023 95.3 70.6023 94.94C71.2023 94.58 71.8623 94.4 72.5823 94.4C73.2889 94.4 73.9423 94.58 74.5423 94.94C75.1423 95.2867 75.6223 95.7467 75.9823 96.32C76.3556 96.8933 76.5423 97.5333 76.5423 98.24V100.28C76.5423 100.947 76.3556 101.58 75.9823 102.18C75.6223 102.767 75.1423 103.247 74.5423 103.62C73.9423 103.98 73.2889 104.16 72.5823 104.16ZM72.5823 102.66C73.0089 102.66 73.3889 102.547 73.7223 102.32C74.0689 102.093 74.3489 101.8 74.5623 101.44C74.7756 101.067 74.8823 100.68 74.8823 100.28V98.24C74.8823 97.8533 74.7756 97.48 74.5623 97.12C74.3623 96.76 74.0889 96.4667 73.7423 96.24C73.3956 96.0133 73.0089 95.9 72.5823 95.9C72.1556 95.9 71.7689 96.0133 71.4223 96.24C71.0756 96.4667 70.8023 96.76 70.6023 97.12C70.4023 97.48 70.3023 97.8533 70.3023 98.24V100.28C70.3023 100.68 70.4023 101.067 70.6023 101.44C70.8023 101.8 71.0756 102.093 71.4223 102.32C71.7689 102.547 72.1556 102.66 72.5823 102.66ZM83.8335 104.12C83.0202 104.12 82.2868 103.98 81.6335 103.7C80.9935 103.407 80.4802 102.94 80.0935 102.3C79.7202 101.66 79.5335 100.813 79.5335 99.76V93.74C79.5335 92.6867 79.7202 91.84 80.0935 91.2C80.4802 90.56 80.9935 90.1 81.6335 89.82C82.2868 89.5267 83.0068 89.38 83.7935 89.38C84.6735 89.38 85.4335 89.5333 86.0735 89.84C86.7268 90.1333 87.2335 90.5467 87.5935 91.08C87.9668 91.6133 88.1535 92.24 88.1535 92.96C88.1535 93.28 88.0802 93.5 87.9335 93.62C87.7868 93.7267 87.5802 93.78 87.3135 93.78C87.0868 93.78 86.8935 93.74 86.7335 93.66C86.5735 93.5667 86.4868 93.4133 86.4735 93.2C86.4202 92.7333 86.3002 92.3333 86.1135 92C85.9268 91.6533 85.6468 91.3867 85.2735 91.2C84.9002 91 84.4202 90.9 83.8335 90.9C83.0068 90.9 82.3602 91.1333 81.8935 91.6C81.4402 92.0533 81.2135 92.7667 81.2135 93.74V99.76C81.2135 100.733 81.4402 101.453 81.8935 101.92C82.3602 102.373 83.0068 102.6 83.8335 102.6C84.6602 102.6 85.3068 102.373 85.7735 101.92C86.2402 101.453 86.4735 100.733 86.4735 99.76V97.72H84.0935C83.9068 97.72 83.7602 97.6467 83.6535 97.5C83.5602 97.3533 83.5135 97.1933 83.5135 97.02C83.5135 96.8467 83.5602 96.6867 83.6535 96.54C83.7602 96.3933 83.9068 96.32 84.0935 96.32H87.5735C87.7602 96.32 87.9002 96.38 87.9935 96.5C88.1002 96.62 88.1535 96.7667 88.1535 96.94V99.76C88.1535 100.813 87.9602 101.66 87.5735 102.3C87.2002 102.94 86.6868 103.407 86.0335 103.7C85.3802 103.98 84.6468 104.12 83.8335 104.12ZM95.112 104.16C94.3786 104.16 93.712 103.98 93.112 103.62C92.512 103.26 92.032 102.787 91.672 102.2C91.312 101.613 91.132 100.987 91.132 100.32V95.12C91.132 94.9733 91.212 94.84 91.372 94.72C91.5453 94.5867 91.7453 94.52 91.972 94.52C92.1986 94.52 92.392 94.5867 92.552 94.72C92.712 94.84 92.792 94.9733 92.792 95.12V100.32C92.792 100.707 92.892 101.08 93.092 101.44C93.3053 101.8 93.5853 102.093 93.932 102.32C94.2786 102.547 94.6653 102.66 95.092 102.66C95.5186 102.66 95.9053 102.547 96.252 102.32C96.5986 102.093 96.872 101.8 97.072 101.44C97.272 101.08 97.372 100.707 97.372 100.32V95.1C97.372 94.94 97.4586 94.8067 97.632 94.7C97.8053 94.58 97.9986 94.52 98.212 94.52C98.4653 94.52 98.6653 94.58 98.812 94.7C98.9586 94.8067 99.032 94.94 99.032 95.1V100.32C99.032 101 98.852 101.633 98.492 102.22C98.1453 102.793 97.672 103.26 97.072 103.62C96.472 103.98 95.8186 104.16 95.112 104.16ZM104.29 104.16C103.543 104.16 102.903 103.947 102.37 103.52C101.85 103.08 101.59 102.407 101.59 101.5C101.59 100.767 101.79 100.2 102.19 99.8C102.59 99.3867 103.137 99.1067 103.83 98.96C104.537 98.8 105.35 98.72 106.27 98.72H107.23V98.3C107.23 97.9 107.157 97.5133 107.01 97.14C106.863 96.7533 106.63 96.44 106.31 96.2C106.003 95.9467 105.577 95.82 105.03 95.82C104.563 95.82 104.19 95.8667 103.91 95.96C103.643 96.0533 103.43 96.1533 103.27 96.26C103.11 96.3533 102.97 96.4 102.85 96.4C102.65 96.4 102.497 96.3067 102.39 96.12C102.283 95.92 102.23 95.7333 102.23 95.56C102.23 95.3467 102.377 95.1533 102.67 94.98C102.963 94.8067 103.33 94.6667 103.77 94.56C104.21 94.4533 104.643 94.4 105.07 94.4C106.003 94.4 106.75 94.5867 107.31 94.96C107.87 95.3333 108.27 95.8133 108.51 96.4C108.763 96.9867 108.89 97.6133 108.89 98.28V103.4C108.89 103.56 108.81 103.7 108.65 103.82C108.503 103.94 108.31 104 108.07 104C107.857 104 107.677 103.94 107.53 103.82C107.383 103.7 107.31 103.56 107.31 103.4V102.6C106.963 103 106.543 103.36 106.05 103.68C105.557 104 104.97 104.16 104.29 104.16ZM104.81 102.82C105.197 102.82 105.57 102.713 105.93 102.5C106.303 102.287 106.61 102.02 106.85 101.7C107.103 101.38 107.23 101.073 107.23 100.78V99.74H106.53C105.97 99.74 105.437 99.7733 104.93 99.84C104.437 99.9067 104.037 100.053 103.73 100.28C103.423 100.493 103.27 100.84 103.27 101.32C103.27 101.84 103.417 102.22 103.71 102.46C104.003 102.7 104.37 102.82 104.81 102.82ZM112.855 104C112.629 104 112.435 103.94 112.275 103.82C112.129 103.687 112.055 103.547 112.055 103.4V95.1C112.055 94.9267 112.129 94.7867 112.275 94.68C112.435 94.5733 112.629 94.52 112.855 94.52C113.082 94.52 113.269 94.5733 113.415 94.68C113.562 94.7867 113.635 94.9267 113.635 95.1V96.04C113.782 95.76 113.982 95.5 114.235 95.26C114.489 95.0067 114.782 94.8 115.115 94.64C115.462 94.48 115.842 94.4 116.255 94.4H116.935C117.109 94.4 117.255 94.4733 117.375 94.62C117.509 94.7667 117.575 94.9467 117.575 95.16C117.575 95.36 117.509 95.5333 117.375 95.68C117.255 95.8267 117.109 95.9 116.935 95.9H116.255C115.829 95.9 115.422 96.02 115.035 96.26C114.649 96.5 114.329 96.84 114.075 97.28C113.835 97.7067 113.715 98.2267 113.715 98.84V103.4C113.715 103.547 113.629 103.687 113.455 103.82C113.295 103.94 113.095 104 112.855 104ZM122.6 104.16C121.974 104.16 121.387 103.98 120.84 103.62C120.307 103.247 119.874 102.767 119.54 102.18C119.22 101.58 119.06 100.947 119.06 100.28V98.24C119.06 97.5333 119.22 96.8933 119.54 96.32C119.874 95.7467 120.307 95.2867 120.84 94.94C121.387 94.58 121.987 94.4 122.64 94.4C123.28 94.4 123.82 94.56 124.26 94.88C124.714 95.1867 125.047 95.5333 125.26 95.92V89.38C125.26 89.2067 125.34 89.0667 125.5 88.96C125.674 88.8533 125.88 88.8 126.12 88.8C126.36 88.8 126.554 88.8533 126.7 88.96C126.847 89.0667 126.92 89.2067 126.92 89.38V103.4C126.92 103.547 126.847 103.687 126.7 103.82C126.554 103.94 126.36 104 126.12 104C125.907 104 125.72 103.94 125.56 103.82C125.414 103.687 125.34 103.547 125.34 103.4V102.6C125.14 103.013 124.787 103.38 124.28 103.7C123.774 104.007 123.214 104.16 122.6 104.16ZM123 102.66C123.427 102.66 123.807 102.547 124.14 102.32C124.487 102.08 124.76 101.813 124.96 101.52C125.16 101.227 125.26 100.993 125.26 100.82V98.24C125.26 97.7467 125.147 97.3333 124.92 97C124.707 96.6533 124.427 96.3867 124.08 96.2C123.734 96 123.38 95.9 123.02 95.9C122.594 95.9 122.207 96.0133 121.86 96.24C121.514 96.4667 121.234 96.76 121.02 97.12C120.82 97.48 120.72 97.8533 120.72 98.24V100.28C120.72 100.667 120.82 101.047 121.02 101.42C121.234 101.793 121.514 102.093 121.86 102.32C122.207 102.547 122.587 102.66 123 102.66ZM131.023 91.92C130.743 91.92 130.496 91.8267 130.283 91.64C130.083 91.44 129.983 91.2133 129.983 90.96C129.983 90.7067 130.083 90.4867 130.283 90.3C130.496 90.1133 130.743 90.02 131.023 90.02C131.316 90.02 131.556 90.1133 131.743 90.3C131.943 90.4867 132.043 90.7067 132.043 90.96C132.043 91.2133 131.943 91.44 131.743 91.64C131.556 91.8267 131.316 91.92 131.023 91.92ZM131.023 104C130.783 104 130.583 103.94 130.423 103.82C130.276 103.687 130.203 103.547 130.203 103.4V95.1C130.203 94.9267 130.276 94.7867 130.423 94.68C130.583 94.5733 130.783 94.52 131.023 94.52C131.25 94.52 131.443 94.5733 131.603 94.68C131.776 94.7867 131.863 94.9267 131.863 95.1V103.4C131.863 103.547 131.776 103.687 131.603 103.82C131.443 103.94 131.25 104 131.023 104ZM137.187 104.16C136.44 104.16 135.8 103.947 135.267 103.52C134.747 103.08 134.487 102.407 134.487 101.5C134.487 100.767 134.687 100.2 135.087 99.8C135.487 99.3867 136.034 99.1067 136.727 98.96C137.434 98.8 138.247 98.72 139.167 98.72H140.127V98.3C140.127 97.9 140.054 97.5133 139.907 97.14C139.76 96.7533 139.527 96.44 139.207 96.2C138.9 95.9467 138.474 95.82 137.927 95.82C137.46 95.82 137.087 95.8667 136.807 95.96C136.54 96.0533 136.327 96.1533 136.167 96.26C136.007 96.3533 135.867 96.4 135.747 96.4C135.547 96.4 135.394 96.3067 135.287 96.12C135.18 95.92 135.127 95.7333 135.127 95.56C135.127 95.3467 135.274 95.1533 135.567 94.98C135.86 94.8067 136.227 94.6667 136.667 94.56C137.107 94.4533 137.54 94.4 137.967 94.4C138.9 94.4 139.647 94.5867 140.207 94.96C140.767 95.3333 141.167 95.8133 141.407 96.4C141.66 96.9867 141.787 97.6133 141.787 98.28V103.4C141.787 103.56 141.707 103.7 141.547 103.82C141.4 103.94 141.207 104 140.967 104C140.754 104 140.574 103.94 140.427 103.82C140.28 103.7 140.207 103.56 140.207 103.4V102.6C139.86 103 139.44 103.36 138.947 103.68C138.454 104 137.867 104.16 137.187 104.16ZM137.707 102.82C138.094 102.82 138.467 102.713 138.827 102.5C139.2 102.287 139.507 102.02 139.747 101.7C140 101.38 140.127 101.073 140.127 100.78V99.74H139.427C138.867 99.74 138.334 99.7733 137.827 99.84C137.334 99.9067 136.934 100.053 136.627 100.28C136.32 100.493 136.167 100.84 136.167 101.32C136.167 101.84 136.314 102.22 136.607 102.46C136.9 102.7 137.267 102.82 137.707 102.82ZM145.772 104C145.532 104 145.332 103.94 145.172 103.82C145.026 103.687 144.952 103.547 144.952 103.4V95.1C144.952 94.9267 145.026 94.7867 145.172 94.68C145.332 94.5733 145.532 94.52 145.772 94.52C145.986 94.52 146.166 94.5733 146.312 94.68C146.459 94.7867 146.532 94.9267 146.532 95.1V95.92C146.746 95.5333 147.079 95.1867 147.532 94.88C147.986 94.56 148.546 94.4 149.212 94.4C149.852 94.4 150.439 94.58 150.972 94.94C151.506 95.2867 151.932 95.7467 152.252 96.32C152.572 96.8933 152.732 97.5333 152.732 98.24V103.4C152.732 103.6 152.646 103.753 152.472 103.86C152.299 103.953 152.106 104 151.892 104C151.692 104 151.506 103.953 151.332 103.86C151.159 103.753 151.072 103.6 151.072 103.4V98.24C151.072 97.8533 150.966 97.48 150.752 97.12C150.552 96.76 150.279 96.4667 149.932 96.24C149.586 96.0133 149.206 95.9 148.792 95.9C148.432 95.9 148.086 96 147.752 96.2C147.419 96.3867 147.146 96.6533 146.932 97C146.719 97.3333 146.612 97.7467 146.612 98.24V103.4C146.612 103.547 146.526 103.687 146.352 103.82C146.192 103.94 145.999 104 145.772 104Z" fill="white"/>
</svg>
